<mxfile host="app.diagrams.net" modified="2023-03-30T12:09:51.879Z" agent="Mozilla/5.0 (Windows NT 10.0; Win64; x64) AppleWebKit/537.36 (KHTML, like Gecko) Chrome/111.0.0.0 Safari/537.36" etag="aMyFMhGrDS3P2kdz5Cwx" version="21.1.1" type="github">
  <diagram name="Page-1" id="7xXtrEIwx52IlNbKDwdI">
    <mxGraphModel dx="794" dy="740" grid="1" gridSize="10" guides="1" tooltips="1" connect="1" arrows="1" fold="1" page="1" pageScale="1" pageWidth="827" pageHeight="1169" math="0" shadow="0">
      <root>
        <mxCell id="0" />
        <mxCell id="1" parent="0" />
        <mxCell id="9DZ92T901oco6vPmruyR-6" value="GECOPY" style="swimlane;whiteSpace=wrap;html=1;" vertex="1" parent="1">
          <mxGeometry x="80" y="60" width="520" height="580" as="geometry" />
        </mxCell>
        <mxCell id="9DZ92T901oco6vPmruyR-10" value="" style="edgeStyle=orthogonalEdgeStyle;rounded=0;orthogonalLoop=1;jettySize=auto;html=1;" edge="1" parent="9DZ92T901oco6vPmruyR-6" source="9DZ92T901oco6vPmruyR-8" target="9DZ92T901oco6vPmruyR-9">
          <mxGeometry relative="1" as="geometry" />
        </mxCell>
        <mxCell id="9DZ92T901oco6vPmruyR-8" value="GESTION DES EMPLOYES" style="swimlane;whiteSpace=wrap;html=1;" vertex="1" parent="9DZ92T901oco6vPmruyR-6">
          <mxGeometry x="40" y="50" width="440" height="90" as="geometry" />
        </mxCell>
        <mxCell id="9DZ92T901oco6vPmruyR-12" value="" style="edgeStyle=orthogonalEdgeStyle;rounded=0;orthogonalLoop=1;jettySize=auto;html=1;" edge="1" parent="9DZ92T901oco6vPmruyR-6" source="9DZ92T901oco6vPmruyR-9" target="9DZ92T901oco6vPmruyR-11">
          <mxGeometry relative="1" as="geometry" />
        </mxCell>
        <mxCell id="9DZ92T901oco6vPmruyR-9" value="GESTION DES ETUDIANTS" style="swimlane;whiteSpace=wrap;html=1;" vertex="1" parent="9DZ92T901oco6vPmruyR-6">
          <mxGeometry x="40" y="180" width="440" height="130" as="geometry" />
        </mxCell>
        <mxCell id="9DZ92T901oco6vPmruyR-14" value="" style="edgeStyle=orthogonalEdgeStyle;rounded=0;orthogonalLoop=1;jettySize=auto;html=1;" edge="1" parent="9DZ92T901oco6vPmruyR-6" source="9DZ92T901oco6vPmruyR-11" target="9DZ92T901oco6vPmruyR-13">
          <mxGeometry relative="1" as="geometry" />
        </mxCell>
        <mxCell id="9DZ92T901oco6vPmruyR-11" value="GESTION DES COURS" style="swimlane;whiteSpace=wrap;html=1;" vertex="1" parent="9DZ92T901oco6vPmruyR-6">
          <mxGeometry x="40" y="340" width="440" height="80" as="geometry" />
        </mxCell>
        <mxCell id="9DZ92T901oco6vPmruyR-13" value="GESTION DES SALLES" style="swimlane;whiteSpace=wrap;html=1;" vertex="1" parent="9DZ92T901oco6vPmruyR-6">
          <mxGeometry x="40" y="460" width="440" height="80" as="geometry" />
        </mxCell>
      </root>
    </mxGraphModel>
  </diagram>
</mxfile>
